<?xml version="1.0" encoding="utf-8"?>
<!-- Generator: Adobe Illustrator 16.0.3, SVG Export Plug-In . SVG Version: 6.00 Build 0)  -->
<!DOCTYPE svg PUBLIC "-//W3C//DTD SVG 1.1//EN" "http://www.w3.org/Graphics/SVG/1.1/DTD/svg11.dtd">
<svg version="1.1" id="Capa_1" xmlns="http://www.w3.org/2000/svg" xmlns:xlink="http://www.w3.org/1999/xlink" x="0px" y="0px"
	 width="2759px" height="950px" viewBox="0 0 2759 950" enable-background="new 0 0 2759 950" xml:space="preserve">
<g>
	<path fill-rule="evenodd" clip-rule="evenodd" fill="#F68E1E" d="M315.866,467.571c3.909,0.523,8.691,4.116,12.271,6.062
		c25.545,13.886,51.047,31.667,70.138,53.769c19.267,22.308,33.391,50.774,39.168,79.685c1.672,8.368,2.579,16.843,2.543,25.384
		c-0.04,9.599-0.998,19.235-2.241,28.748c-2.616,20.012-8.819,39.097-17.702,57.193c-4.759,9.696-10.253,19.17-16.356,28.086
		c-5.763,8.42-12.15,16.589-18.965,24.187c-4.274,4.766-8.67,9.516-13.65,13.56c-6.934,5.63-14.111,11.049-21.658,15.809
		c-23.917,15.085-49.02,23.771-76.81,28.363c-11.113,1.836-22.245,3.854-33.408,5.36c-7.83,1.056-15.858,0.249-23.61,1.545
		c1.158-20.511,2.27-40.2,3.378-59.818c6.237-0.53,11.993-0.774,17.676-1.551c13.592-1.855,27.454-2.807,40.642-6.274
		c14.526-3.819,29.016-8.884,41.464-17.748c17.964-12.793,32.373-29.721,42.764-49.126c2.957-5.522,5.555-11.231,7.889-17.043
		c4.803-11.954,9.288-24.963,10.425-37.871c1.591-18.061,1.184-37.049-6.903-53.653c-7.674-15.757-20.343-28.854-33.5-40.16
		c-10.414-8.949-21.509-16.987-33.884-23.151c-2.478-1.234-5.101-2.378-3.804-6.829c2.657-9.123,4.051-18.606,6.383-27.836
		C310.344,485.44,312.485,476.009,315.866,467.571z"/>
	<path fill-rule="evenodd" clip-rule="evenodd" fill="#032D51" d="M233.018,191.868c6.035,11.947,11.826,23.368,17.573,34.813
		c2.503,4.982,4.806,10.068,7.415,14.994c1.296,2.448,0.918,3.944-1.033,5.983c-7.125,7.448-14.105,14.665-19.708,23.383
		c-5.812,9.044-10.308,18.864-14.088,28.909c-8.203,21.795-11.101,47.14-6.165,70.047c4.306,19.979,15.199,38.279,29.421,52.785
		c12.273,12.519,26.855,23.866,42.267,32.263c4.037,2.2,8.434,3.649,6.757,9.152c-2.533,8.308-4.793,16.703-7.005,25.104
		c-2.334,8.865-4.484,17.777-6.93,27.524c-5.971-2.697-11.747-4.784-16.993-7.795c-21.644-12.423-42.274-27.723-60.028-45.295
		c-14.615-14.465-26.26-31.82-34.577-50.603c-3.138-7.086-5.769-14.396-7.905-21.845c-2.392-8.339-4.138-16.993-5.087-25.621
		c-1.144-10.395-1.498-21.257-0.751-31.698c0.517-7.224,1.526-14.448,2.92-21.555c4.714-24.042,12.145-47.669,25.37-68.468
		c7.446-11.71,16.18-22.636,25.364-33.022c5.368-6.069,11.99-11.045,18.176-16.363C229.417,193.353,231.342,192.746,233.018,191.868
		z"/>
	<path fill-rule="evenodd" clip-rule="evenodd" fill="#062F53" d="M1457.028,354.876c-18.321,0-36.427,0-54.866,0
		c0-5.771,0-11.182,0-16.999c24.768,0,49.619,0,74.471,0c1.505,38.715-19.627,74.934-60.111,84.528
		c-33.489,7.936-65.359,3.824-92.809-18.76c-35.426-29.146-43.641-81.097-18.229-116.808c19.878-27.933,48.005-40.73,81.951-40.774
		c30.491-0.039,56.177,11.926,78.09,32.652c0.339,0.32,0.544,0.782,0.699,1.014c-4.163,4.425-8.232,8.75-12.588,13.38
		c-2.565-2.205-4.753-4.154-7.013-6.018c-19.054-15.718-40.523-24.552-65.637-23.089c-33.621,1.958-64.301,27.393-70.255,60.216
		c-4.773,26.308,5.477,48.196,25.213,65.311c25.701,22.288,65.592,25.699,92.712,8.756c14.855-9.281,24.194-22.515,28.004-39.619
		C1456.907,357.563,1456.889,356.4,1457.028,354.876z"/>
	<path fill-rule="evenodd" clip-rule="evenodd" fill="#F69020" d="M1960.986,626.83c0.041-46.739,32.563-85.248,78.707-91.385
		c55.146-7.335,96.292,29.776,104.053,74.57c8.95,51.664-26.363,97.723-78.82,103.228c-48.969,5.139-82.801-22.794-97.455-54.862
		C1962.916,648.412,1960.99,637.791,1960.986,626.83z M2051.699,696.398c44.152,1.01,74.735-35.461,74.715-70.103
		c-0.023-41.524-32.32-74.226-73.502-74.293c-41.044-0.067-73.271,32.952-73.311,75.116
		C1979.563,666.858,2010.285,696.38,2051.699,696.398z"/>
	<path fill-rule="evenodd" clip-rule="evenodd" fill="#F69020" d="M984.831,628.916c0.271-46.4,29.156-83.38,71.409-92.183
		c55.938-11.654,100.178,24.092,110.162,68.07c12.209,53.786-22.75,102.899-77.851,108.311
		c-42.071,4.132-73.408-12.867-94.516-49.05C987.367,652.633,984.668,639.938,984.831,628.916z M1075.543,696.398
		c45.587,0.85,74.613-36.848,74.616-69.692c0.003-42.071-32.057-74.667-73.565-74.703c-40.795-0.035-73.369,33.314-73.437,75.185
		C1003.094,666.628,1034.205,696.375,1075.543,696.398z"/>
	<path fill-rule="evenodd" clip-rule="evenodd" fill="#052F52" d="M704.943,292.983c0,44.353,0,87.398,0,130.816
		c-6.248,0-12.117,0-18.229,0c0-57.849,0-115.613,0-174.976c2.567,1.533,4.851,2.256,6.198,3.797
		c20.82,23.806,41.514,47.722,62.248,71.603c16.153,18.604,32.321,37.195,48.486,55.788c0.511,0.588,1.063,1.139,2.182,2.332
		c0-44.481,0-88.173,0-132.189c5.967,0,11.529,0,17.396,0c0,57.745,0,115.49,0,173.42c-3.224,1.858-4.946-0.425-6.828-2.589
		c-26.002-29.892-52.026-59.763-78.046-89.64C727.528,318.919,716.707,306.492,704.943,292.983z"/>
	<path fill-rule="evenodd" clip-rule="evenodd" fill="#F69021" d="M2244.752,536.517c2.851,1.902,5.073,2.802,6.48,4.412
		c23.122,26.466,46.143,53.021,69.184,79.557c13.761,15.847,27.525,31.689,41.253,47.565c0.517,0.598,0.659,1.52,0.976,2.29
		c0.498-0.31,0.995-0.618,1.492-0.928c0-43.683,0-87.366,0-131.309c5.992,0,11.42,0,17.158,0c0,57.911,0,115.672,0,175.222
		c-2.801-1.75-5.184-2.587-6.635-4.241c-24.16-27.552-48.205-55.203-72.271-82.836c-12.031-13.815-24.063-27.631-36.059-41.478
		c-0.828-0.956-1.351-2.177-2.016-3.275c-0.479,0.312-0.957,0.623-1.436,0.935c0,43.039,0,86.077,0,129.42
		c-6.26,0-12.013,0-18.127,0C2244.752,654.054,2244.752,596.309,2244.752,536.517z"/>
	<path fill-rule="evenodd" clip-rule="evenodd" fill="#042E52" d="M1687.508,424.162c-7.266,0-13.709,0.188-20.122-0.156
		c-1.31-0.07-2.851-1.929-3.713-3.317c-15.165-24.447-30.334-48.894-45.228-73.505c-2.046-3.381-4.181-4.449-7.891-4.257
		c-5.612,0.291-11.251,0.075-17.299,0.075c0,27.137,0,53.873,0,80.887c-5.842,0-11.267,0-17.061,0c0-57.745,0-115.603,0-173.513
		c0.2-0.128,0.471-0.448,0.735-0.444c22.302,0.338,44.645-0.017,66.891,1.288c17.777,1.042,31.55,10.239,37.943,27.234
		c6.502,17.285,4.751,34.257-7.941,48.615c-9.27,10.486-22.016,14.331-35.961,16.399
		C1654.294,370.177,1670.69,396.827,1687.508,424.162z M1593.401,326.569c16.371-0.577,32.525-0.342,48.495-1.943
		c15.133-1.517,24.615-13.535,24.619-28.489c0.004-14.209-9.314-26.242-23.657-27.681c-16.302-1.634-32.789-1.418-49.457-2.016
		C1593.401,286.704,1593.401,305.961,1593.401,326.569z"/>
	<path fill-rule="evenodd" clip-rule="evenodd" fill="#F68F1F" d="M1445.845,535.031c5.97,0,11.256,0,17.311,0
		c0,2.011,0,3.931,0,5.851c0,33.833-0.046,67.666,0.038,101.499c0.017,6.651,0.32,13.319,0.855,19.95
		c1.414,17.527,12.276,29.516,30.645,33.351c11.146,2.326,22.286,2.412,33.586-0.419c17.204-4.311,25.861-13.478,28.629-34.992
		c1.015-7.889,0.877-15.953,0.899-23.939c0.091-31.833,0.037-63.666,0.037-95.499c0-1.795,0-3.59,0-5.684c6.019,0,11.59,0,17.753,0
		c0,1.941,0,3.731,0,5.522c0,33.5,0.282,67.003-0.162,100.497c-0.145,10.912-1.084,22.06-3.594,32.641
		c-4.794,20.211-17.844,33.063-38.489,37.378c-13.948,2.915-28.096,4.023-42.178,1.37c-27.87-5.253-43.978-24.009-44.885-53.57
		c-0.823-26.808-0.365-53.656-0.438-80.486C1445.813,564.189,1445.845,549.879,1445.845,535.031z"/>
	<path fill-rule="evenodd" clip-rule="evenodd" fill="#052E52" d="M1198.986,250.14c0,5.512,0,10.805,0,16.615
		c-27.122,0-54.326,0-81.838,0c0,18.242,0,35.974,0,54.15c16.279,0,32.682,0,49.468,0c0,5.978,0,11.53,0,17.512
		c-16.349,0-32.779,0-49.492,0c0,22.847,0,45.276,0,68.195c26.849,0,53.749,0,81.021,0c0,6.02,0,11.56,0,17.333
		c-32.876,0-65.655,0-98.791,0c0-57.759,0-115.627,0-173.806C1132.326,250.14,1165.387,250.14,1198.986,250.14z"/>
	<path fill-rule="evenodd" clip-rule="evenodd" fill="#F69021" d="M791.643,677.095c5.65-3.405,10.44-6.291,14.68-8.846
		c5.538,6.792,10.141,13.855,16.102,19.478c17.102,16.129,45.555,8.824,51.843-12.987c3.357-11.647-0.613-21.609-8.899-29.492
		c-6.338-6.029-13.914-10.749-20.872-16.138c-9.194-7.119-18.963-13.65-27.348-21.629c-17.549-16.699-18.696-42.608-3.513-59.379
		c13.044-14.407,36.948-17.799,54.609-7.629c9.582,5.518,16.568,13.71,23.232,22.967c-4.791,3.637-9.374,7.116-14.114,10.715
		c-3.804-4.209-7.335-8.381-11.15-12.274c-5.596-5.71-12.454-8.776-20.525-8.869c-9.188-0.106-16.755,3.253-21.341,11.386
		c-4.576,8.114-3.805,16.677,1.174,24.177c3.337,5.027,7.902,9.456,12.601,13.322c12.977,10.681,26.562,20.63,39.418,31.448
		c8.384,7.055,14.899,15.752,16.469,27.156c3.381,24.578-14.61,48.629-39.228,52.471c-20.396,3.183-37.556-2.732-50.844-18.668
		C799.595,689.098,796.011,683.262,791.643,677.095z"/>
	<path fill-rule="evenodd" clip-rule="evenodd" fill="#F69020" d="M2573.5,563.458c-4.991,3.787-9.478,7.191-14.107,10.704
		c-3.819-4.218-7.357-8.383-11.173-12.275c-5.597-5.71-12.452-8.786-20.523-8.874c-9.399-0.103-17.073,3.398-21.578,11.826
		c-4.38,8.193-3.633,16.884,1.697,24.124c4.362,5.927,10.119,10.98,15.84,15.719c11.662,9.658,23.956,18.558,35.528,28.316
		c8.381,7.067,15.035,15.662,16.771,27.012c3.767,24.637-14.351,49.083-39.171,52.961c-20.398,3.188-37.554-2.739-50.844-18.666
		c-4.343-5.203-7.917-11.047-12.273-17.207c5.432-3.296,10.304-6.254,14.695-8.919c5.41,6.717,9.897,13.642,15.684,19.218
		c17.099,16.48,45.877,9.343,52.248-12.637c2.826-9.748,0.86-19.089-6.061-26.015c-7.562-7.567-16.639-13.613-25.006-20.384
		c-9.551-7.729-20.11-14.543-28.364-23.479c-22.936-24.831-11.015-62.25,21.557-69.305c11.112-2.407,21.882-0.781,31.816,4.896
		C2559.835,545.959,2566.813,554.17,2573.5,563.458z"/>
	<path fill-rule="evenodd" clip-rule="evenodd" fill="#052E52" d="M2126.292,321.112c13.976-22.934,27.544-45.041,40.89-67.281
		c1.885-3.142,3.901-4.327,7.5-4.085c4.919,0.329,9.877,0.082,15.56,0.082c-9.128,15.085-17.871,29.55-26.628,44.007
		c-8.96,14.79-17.99,29.538-26.825,44.402c-1.108,1.865-1.7,4.324-1.711,6.512c-0.117,24.658-0.074,49.318-0.074,73.978
		c0,1.64,0,3.278,0,5.174c-5.733,0-11.141,0-17.175,0c0-1.762,0-3.525,0-5.289c0-24.492,0.061-48.985-0.094-73.478
		c-0.016-2.488-0.814-5.281-2.114-7.404c-17.199-28.079-34.554-56.064-51.869-84.072c-0.598-0.967-1.19-1.936-2.347-3.814
		c6.917,0,13.116-0.208,19.279,0.171c1.277,0.078,2.684,2.172,3.586,3.615c12.873,20.584,25.668,41.217,38.484,61.837
		C2123.791,317.135,2124.841,318.797,2126.292,321.112z"/>
	<path fill-rule="evenodd" clip-rule="evenodd" fill="#063053" d="M1928.344,266.907c-13.181,0-25.635,0-38.478,0
		c0-5.669,0-11.061,0-16.771c31.709,0,63.432,0,95.361,0c0,5.505,0,10.919,0,16.753c-13.049,0-25.808,0-38.94,0
		c0,52.498,0,104.576,0,156.969c-6.105,0-11.832,0-17.943,0C1928.344,371.711,1928.344,319.631,1928.344,266.907z"/>
	<path fill-rule="evenodd" clip-rule="evenodd" fill="#073053" d="M952.132,423.884c0-52.496,0-104.449,0-156.943
		c-12.948,0-25.673,0-38.681,0c0-5.79,0-11.047,0-16.712c31.643,0,63.353,0,95.395,0c0,5.229,0,10.625,0,16.571
		c-12.746,0-25.479,0-38.595,0c0,52.626,0,104.709,0,157.084C964.133,423.884,958.407,423.884,952.132,423.884z"/>
	<path fill-rule="evenodd" clip-rule="evenodd" fill="#F69021" d="M1663.583,537.987c31.794,0,63.271,0,95.161,0
		c0,5.446,0,10.827,0,16.685c-12.581,0-25.181,0-38.291,0c0,52.527,0,104.591,0,157.07c-6.217,0-11.931,0-18.165,0
		c0-52.057,0-104.129,0-156.662c-13.088,0-25.68,0-38.705,0C1663.583,549.127,1663.583,543.634,1663.583,537.987z"/>
	<path fill-rule="evenodd" clip-rule="evenodd" fill="#F69021" d="M1286.034,537.593c0,52.546,0,104.644,0,157.107
		c22.347,0,44.291,0,66.604,0c0,5.748,0,11.14,0,16.847c-27.957,0-55.88,0-84.224,0c0-57.805,0-115.692,0-173.954
		C1274.023,537.593,1279.827,537.593,1286.034,537.593z"/>
	<path fill-rule="evenodd" clip-rule="evenodd" fill="#032D51" d="M309.754,215.225c-2.716-3.284-3.145-9.075-3.612-12.914
		c-1.356-11.15-3.55-22.223-4.753-33.396c-0.348-3.236-1.322-7.13-0.824-10.378c11.851-3.578,24.758-5.432,36.988-7.252
		c15.134-2.253,30.532-3.317,45.8-1.909c-2.724,8.323-5.561,16.826-8.288,25.364c-3.083,9.651-5.729,19.464-9.358,28.904
		c-2.653,6.897-10.956,7.331-17.166,8.18c-6.922,0.945-13.749,2.449-20.592,3.833c-4.242,0.858-8.616,2.204-12.988,2.07
		C312.632,217.656,310.966,216.69,309.754,215.225z"/>
	<path fill-rule="evenodd" clip-rule="evenodd" fill="#063053" d="M564.238,250.014c5.842,0,11.438,0,17.318,0
		c0,57.924,0,115.658,0,173.778c-5.666,0-11.368,0-17.318,0C564.238,365.938,564.238,308.06,564.238,250.014z"/>
	<path fill-rule="evenodd" clip-rule="evenodd" fill="#032D51" d="M1784.761,250.036c5.747,0,11.191,0,16.938,0
		c0,57.87,0,115.726,0,173.856c-5.579,0-11.133,0-16.938,0C1784.761,365.997,1784.761,308.274,1784.761,250.036z"/>
	<path fill-rule="evenodd" clip-rule="evenodd" fill="#F68E1E" d="M1846.788,711.854c0-58.017,0-115.627,0-173.622
		c5.64,0,11.18,0,16.97,0c0,57.862,0,115.594,0,173.622C1858.183,711.854,1852.777,711.854,1846.788,711.854z"/>
</g>
</svg>
